<svg id="ICON-Cloud" xmlns="http://www.w3.org/2000/svg" width="44" height="44" viewBox="0 0 44 44">
  <rect id="Canvas" width="44" height="44" fill="#ff13dc" opacity="0"/>
  <path id="Path_61915" data-name="Path 61915" d="M33.856,13.573a7.123,7.123,0,0,0-.8.046,9.05,9.05,0,1,0-17.692-3.6A7.626,7.626,0,0,0,6.02,19.345a4.2,4.2,0,0,0-.732-.064,4.286,4.286,0,1,0,0,8.572H19V21.859H14.8a.795.795,0,0,1-.564-1.36l6.386-6.488a.5.5,0,0,1,.708,0L27.762,20.5a.782.782,0,0,1,.236.56.8.8,0,0,1-.8.8H23v6H33.856a7.144,7.144,0,1,0,0-14.287Z" transform="translate(1.002 2.141)" fill="currentColor"/>
  <path id="Path_61916" data-name="Path 61916" d="M10,15h4v9a1,1,0,0,1-1,1H11a1,1,0,0,1-1-1Z" transform="translate(10 15)" fill="currentColor"/>
</svg>
