<svg id="ICON-Personal_Data" data-name="ICON-Personal Data" xmlns="http://www.w3.org/2000/svg" width="44" height="44" viewBox="0 0 44 44">
  <rect id="Canvas" width="44" height="44" fill="#ff13dc" opacity="0"/>
  <path id="Path_61917" data-name="Path 61917" d="M13,2.5h.086a1,1,0,0,1,.706.292L22.708,11.7a1,1,0,0,1,.292.714V12.5H13Z" transform="translate(13 2.5)" fill="currentColor"/>
  <path id="Path_61918" data-name="Path 61918" d="M19.5,15.5a1,1,0,0,1-1-1V2.5H5.5a1,1,0,0,0-1,1v32a1,1,0,0,0,1,1h25a1,1,0,0,0,1-1v-20Zm6.986,18H9.528c-.012-.128-.028-.642-.028-.772,0-1.174.742-4.152,5.5-4.532a.77.77,0,0,0,.71-.752V26.366a.722.722,0,0,0-.2-.484,5.52,5.52,0,0,1-1.5-3.582,3.824,3.824,0,0,1,3.976-4.2,3.764,3.764,0,0,1,3.932,4.2,5.442,5.442,0,0,1-1.422,3.574.712.712,0,0,0-.2.484v1.084a.77.77,0,0,0,.706.75c4.668.434,5.508,3.4,5.508,4.528C26.5,32.858,26.486,33.5,26.486,33.5Z" transform="translate(4.5 2.5)" fill="currentColor"/>
</svg>
