<svg xmlns="http://www.w3.org/2000/svg" width="20" height="20" viewBox="0 0 20 20">
  <g id="STATE:_Default" data-name="STATE: Default" transform="translate(-0.247 1)">
    <g id="ICON" transform="translate(-1 2)">
      <path id="Path_61168" data-name="Path 61168" d="M21,10.35H19.5a.243.243,0,0,1-.236-.187,7.441,7.441,0,0,0-.833-2,.243.243,0,0,1,.035-.3l1.06-1.06a1,1,0,0,0,0-1.414h0l-.918-.921a1,1,0,0,0-1.414,0l-1.06,1.06a.243.243,0,0,1-.3.035,7.435,7.435,0,0,0-2-.833.243.243,0,0,1-.187-.236V3a1,1,0,0,0-1-1h-1.3a1,1,0,0,0-1,1V4.5a.243.243,0,0,1-.187.236,7.435,7.435,0,0,0-2,.833.243.243,0,0,1-.3-.035L6.8,4.469a1,1,0,0,0-1.414,0l-.919.919a1,1,0,0,0,0,1.414h0l1.06,1.06a.243.243,0,0,1,.035.3,7.441,7.441,0,0,0-.833,2,.243.243,0,0,1-.236.187H3a1,1,0,0,0-1,1v1.3a1,1,0,0,0,1,1H4.5a.243.243,0,0,1,.236.187,7.441,7.441,0,0,0,.833,2,.243.243,0,0,1-.035.3L4.469,17.2a1,1,0,0,0,0,1.414l.919.919a1,1,0,0,0,1.414,0h0l1.06-1.06a.243.243,0,0,1,.3-.035,7.441,7.441,0,0,0,2,.833.243.243,0,0,1,.187.236V21a1,1,0,0,0,1,1h1.3a1,1,0,0,0,1-1V19.5a.243.243,0,0,1,.187-.236,7.44,7.44,0,0,0,2-.833.243.243,0,0,1,.3.035l1.06,1.06a1,1,0,0,0,1.414,0h0l.923-.918a1,1,0,0,0,0-1.414l-1.06-1.06a.243.243,0,0,1-.035-.3,7.441,7.441,0,0,0,.833-2,.243.243,0,0,1,.236-.187H21a1,1,0,0,0,1-1v-1.3A1,1,0,0,0,21,10.35Zm-9,4.983A3.333,3.333,0,1,1,15.333,12,3.333,3.333,0,0,1,12,15.333Z" transform="translate(-0.753 -5)" fill="currentColor"/>
    </g>
  </g>
</svg>
