<svg id="STATE:_Default" data-name="STATE: Default" xmlns="http://www.w3.org/2000/svg" width="18.413" height="13.161" viewBox="0 0 18.413 13.161">
  <g id="ICON">
    <path id="Path_61163" data-name="Path 61163" d="M4.788,12.089a5.186,5.186,0,0,1,3.5-1.25h8.85v-2.9a.276.276,0,0,1,.45-.2l3.9,3.9a.242.242,0,0,1,0,.35l-3.9,3.9a.269.269,0,0,1-.45-.2v-2.85H8.188a3.045,3.045,0,0,0-3.1,2.9,2.954,2.954,0,0,0,3.05,3.1h3.5a.472.472,0,0,1,.5.5v1a.472.472,0,0,1-.5.5H8.388a5.165,5.165,0,0,1-5.2-4.5A4.9,4.9,0,0,1,4.788,12.089Z" transform="translate(-3.15 -7.678)" fill="currentColor"/>
  </g>
</svg>
