<svg xmlns="http://www.w3.org/2000/svg" width="18.25" height="12.818" viewBox="0 0 18.25 12.818">
  <g id="ICON" transform="translate(-1.875 -4.59)">
    <path id="Path_35495" data-name="Path 35495" d="M14.831,5.543A8.675,8.675,0,0,0,11,4.59c-5.02,0-9.125,5-9.125,6.618,0,1.736,4.321,6.2,9.088,6.2,4.806,0,9.162-4.464,9.162-6.2C20.125,9.839,17.683,6.956,14.831,5.543ZM11,16.345A5.345,5.345,0,1,1,16.345,11,5.345,5.345,0,0,1,11,16.345Z" fill="currentColor"/>
    <path id="Path_35496" data-name="Path 35496" d="M12.545,11.048A1.545,1.545,0,0,1,11,9.5a1.524,1.524,0,0,1,.782-1.315A2.846,2.846,0,0,0,11,8.067,2.933,2.933,0,1,0,13.933,11a2.722,2.722,0,0,0-.1-.693A1.52,1.52,0,0,1,12.545,11.048Z" fill="currentColor"/>
  </g>
</svg>
