<svg xmlns="http://www.w3.org/2000/svg" width="18" height="18" viewBox="0 0 18 18">
  <g transform="translate(-2 -2)">
    <rect width="18" height="18" transform="translate(2 2)" fill="#ff13dc" opacity="0"/>
    <path data-name="Path 61849" d="M1,16.5a.5.5,0,0,0,.5.5H8V10H1ZM0,6.5v2A.5.5,0,0,0,.5,9H8V6H.5A.5.5,0,0,0,0,6.5ZM10,17h6.5a.5.5,0,0,0,.5-.5V10H10ZM17.5,6H10V9h7.5a.5.5,0,0,0,.5-.5v-2A.5.5,0,0,0,17.5,6Z" transform="translate(2 2)" fill="currentColor"/>
    <path data-name="Path 61850" d="M13,1A5.342,5.342,0,0,0,9,3.586,5.342,5.342,0,0,0,5,1,2,2,0,1,0,5,5h8a2,2,0,0,0,0-4ZM5,4A1,1,0,0,1,5,2,4.367,4.367,0,0,1,8.1,4Zm8,0H9.9A4.367,4.367,0,0,1,13,2a1,1,0,0,1,0,2Z" transform="translate(2 2)" fill="currentColor"/>
  </g>
</svg>
