<svg xmlns="http://www.w3.org/2000/svg" width="19.605" height="18.298" viewBox="0 0 19.605 18.298">
  <g id="ICON:_Hidden" data-name="ICON: Hidden" transform="translate(0.229 -0.468)">
    <path id="Path_35407" data-name="Path 35407" d="M7.542,4.705a4.848,4.848,0,0,1,6.173,6.173l1.637,1.637a5.388,5.388,0,0,0,2.07-3.028c0-1.246-2.22-3.869-4.814-5.153a7.89,7.89,0,0,0-3.485-.866,7.493,7.493,0,0,0-2.4.413Z" transform="translate(0.831 -0.324)" fill="currentColor"/>
    <g id="Group_63496" data-name="Group 63496" transform="translate(-0.229 0.468)">
      <rect id="ToDelete" width="19.605" height="18.298" fill="#ff13dc" opacity="0"/>
      <path id="Path_35408" data-name="Path 35408" d="M16.22,15.385,11.655,10.82a2.651,2.651,0,0,0,.436-1.456A2.477,2.477,0,0,0,12,8.731a1.383,1.383,0,0,1-1.171.673A1.4,1.4,0,0,1,9.424,8a1.387,1.387,0,0,1,.711-1.2,2.589,2.589,0,0,0-.711-.11,2.651,2.651,0,0,0-1.456.436L3.2,2.366a.4.4,0,0,0-.559,0L1.636,3.372a.4.4,0,0,0,0,.559l2,2C2.1,7.27,1.125,8.8,1.125,9.553c0,1.581,3.93,5.639,8.265,5.639a8.159,8.159,0,0,0,2.925-.583l2.339,2.339a.4.4,0,0,0,.559,0l1.006-1.006A.4.4,0,0,0,16.22,15.385Zm-6.8-1.161a4.861,4.861,0,0,1-4.861-4.86A4.8,4.8,0,0,1,5.03,7.325L6.789,9.08a2.617,2.617,0,0,0-.033.283A2.667,2.667,0,0,0,9.424,12.03,2.644,2.644,0,0,0,9.707,12l1.755,1.755a4.8,4.8,0,0,1-2.038.467Z" transform="translate(0.759 -0.857)" fill="currentColor"/>
    </g>
  </g>
</svg>
