<svg xmlns="http://www.w3.org/2000/svg" width="81" height="82.141" viewBox="0 0 81 82.141">
  <g id="ICON" transform="translate(0 0.403)">
    <rect id="Canvas" width="81" height="82.141" transform="translate(0 -0.403)" fill="#ff13dc" opacity="0"/>
    <path id="Path_61838" data-name="Path 61838" d="M12.928,7.024a1.982,1.982,0,0,0-1-.274H9.963A1.963,1.963,0,0,0,8,8.713v27.5a1.963,1.963,0,0,0,1.963,1.963h1.963a1.982,1.982,0,0,0,1-.274L36.553,24.152a1.963,1.963,0,0,0,0-3.379Z" transform="translate(21.577 18.262)" fill="#a2a2a2"/>
    <path id="Path_61840" data-name="Path 61840" d="M35.361,2A33.361,33.361,0,1,0,68.722,35.361,33.361,33.361,0,0,0,35.361,2Zm0,61.162a27.8,27.8,0,1,1,27.8-27.8A27.8,27.8,0,0,1,35.361,63.162Z" transform="translate(5.294 5.351)" fill="#a2a2a2"/>
  </g>
</svg>
