<svg xmlns="http://www.w3.org/2000/svg" width="19.616" height="17.05" viewBox="0 0 19.616 17.05">
  <g id="STATE:_Default" data-name="STATE: Default" transform="translate(-0.497 -0.45)">
    <g id="ICON" transform="translate(-1)">
      <path id="Path_61161" data-name="Path 61161" d="M20.7,11.9,11.4,2.6a.483.483,0,0,0-.7,0L1.4,11.9a.483.483,0,0,0,0,.7l1.2,1.2a.215.215,0,0,0,.2.2h.7v5a.472.472,0,0,0,.5.5H8a.472.472,0,0,0,.5-.5V13.5A.472.472,0,0,1,9,13h4a.472.472,0,0,1,.5.5V19a.472.472,0,0,0,.5.5h4a.472.472,0,0,0,.5-.5V14h.7c.1,0,.3-.1.4-.1l1.2-1.2a.755.755,0,0,0-.1-.8Z" transform="translate(0.247 -2)" fill="currentColor"/>
    </g>
  </g>
</svg>
