<svg xmlns="http://www.w3.org/2000/svg" width="18.413" height="13.161" viewBox="0 0 18.413 13.161">
  <g id="STATE:_Default" data-name="STATE: Default" transform="translate(-0.822 -2.839)">
    <g id="ICON" transform="translate(-1 1)">
      <path id="Path_61163" data-name="Path 61163" d="M19.925,12.089a5.186,5.186,0,0,0-3.5-1.25H7.575v-2.9a.276.276,0,0,0-.45-.2l-3.9,3.9a.242.242,0,0,0,0,.35l3.9,3.9a.269.269,0,0,0,.45-.2v-2.85h8.95a3.045,3.045,0,0,1,3.1,2.9,2.954,2.954,0,0,1-3.05,3.1h-3.5a.472.472,0,0,0-.5.5v1a.472.472,0,0,0,.5.5h3.25a5.165,5.165,0,0,0,5.2-4.5A4.9,4.9,0,0,0,19.925,12.089Z" transform="translate(-1.328 -5.839)" fill="currentColor"/>
    </g>
  </g>
</svg>
