<svg id="ICON" xmlns="http://www.w3.org/2000/svg" width="22" height="10.353" viewBox="0 0 22 10.353">
  <rect id="Rectangle_1" data-name="Rectangle 1" width="2.588" height="2.588" rx="0.25" fill="currentColor"/>
  <rect id="Rectangle_2" data-name="Rectangle 2" width="5.176" height="2.588" rx="0.25" transform="translate(0 3.882)" fill="currentColor"/>
  <rect id="Rectangle_3" data-name="Rectangle 3" width="3.882" height="2.588" rx="0.25" transform="translate(18.118 3.882)" fill="currentColor"/>
  <rect id="Rectangle_4" data-name="Rectangle 4" width="5.176" height="2.588" rx="0.25" transform="translate(16.824 7.765)" fill="currentColor"/>
  <rect id="Rectangle_5" data-name="Rectangle 5" width="3.882" height="2.588" rx="0.25" transform="translate(0 7.765)" fill="currentColor"/>
  <rect id="Rectangle_6" data-name="Rectangle 6" width="10.353" height="2.588" rx="0.25" transform="translate(5.176 7.765)" fill="currentColor"/>
  <rect id="Rectangle_7" data-name="Rectangle 7" width="2.588" height="2.588" rx="0.25" transform="translate(3.882)" fill="currentColor"/>
  <rect id="Rectangle_8" data-name="Rectangle 8" width="2.588" height="2.588" rx="0.25" transform="translate(7.765)" fill="currentColor"/>
  <rect id="Rectangle_9" data-name="Rectangle 9" width="2.588" height="2.588" rx="0.25" transform="translate(11.647)" fill="currentColor"/>
  <rect id="Rectangle_10" data-name="Rectangle 10" width="2.588" height="2.588" rx="0.25" transform="translate(6.471 3.882)" fill="currentColor"/>
  <rect id="Rectangle_11" data-name="Rectangle 11" width="2.588" height="2.588" rx="0.25" transform="translate(10.353 3.882)" fill="currentColor"/>
  <rect id="Rectangle_12" data-name="Rectangle 12" width="2.588" height="2.588" rx="0.25" transform="translate(14.235 3.882)" fill="currentColor"/>
  <rect id="Rectangle_13" data-name="Rectangle 13" width="2.588" height="2.588" rx="0.25" transform="translate(15.529)" fill="currentColor"/>
  <rect id="Rectangle_14" data-name="Rectangle 14" width="2.588" height="2.588" rx="0.25" transform="translate(19.412)" fill="currentColor"/>
</svg>
