<svg xmlns="http://www.w3.org/2000/svg" width="17" height="17" viewBox="0 0 17 17">
  <g id="Group_63495" data-name="Group 63495" transform="translate(-2.5 -2.5)">
    <path id="Path_36189" data-name="Path 36189" d="M19,2.5H3a.5.5,0,0,0-.5.5V19a.5.5,0,0,0,.5.5H19a.5.5,0,0,0,.5-.5V3A.5.5,0,0,0,19,2.5ZM4,18V4H18V18Z" fill="currentColor"/>
    <path id="Path_36190" data-name="Path 36190" d="M15.235,10.206H11.794V6.765a.265.265,0,0,0-.265-.265H10.471a.265.265,0,0,0-.265.265v3.441H6.765a.265.265,0,0,0-.265.265v1.058a.265.265,0,0,0,.265.265h3.441v3.441a.265.265,0,0,0,.265.265h1.058a.265.265,0,0,0,.265-.265V11.794h3.441a.265.265,0,0,0,.265-.265V10.471a.265.265,0,0,0-.265-.265Z" fill="currentColor"/>
  </g>
</svg>
