<svg xmlns="http://www.w3.org/2000/svg" width="16.5" height="16.5" viewBox="0 0 16.5 16.5">
  <g id="S_ControlDefault_Blue_46" transform="translate(-0.75 -0.75)">
    <path data-name="Path 61932" d="M8.9,1c2.76,0,4.957,3.569,4.957,8h0l0,.246q0,.123-.007.245h0l-.01.209h-.664l.011-.206q.01-.246.01-.494c0-4.038-1.944-7.338-4.294-7.338-1.374,0-2.61,1.128-3.4,2.872A12.268,12.268,0,0,1,9,4.043H9l.224,0,.223.006.187.008v.663L9.45,4.714Q9.226,4.706,9,4.706a11.358,11.358,0,0,0-3.814.632A11.447,11.447,0,0,0,4.607,9a11.439,11.439,0,0,0,.579,3.662A11.35,11.35,0,0,0,9,13.294a10.01,10.01,0,0,0,5.894-1.749A3.244,3.244,0,0,0,16.338,9h0l0-.1A3.367,3.367,0,0,0,14.9,6.458h0l.012-.81.064.043a6.065,6.065,0,0,1,1.255,1.169A3.346,3.346,0,0,1,17,9c0,2.76-3.569,4.957-8,4.957a12.266,12.266,0,0,1-3.5-.492c.789,1.744,2.025,2.873,3.4,2.873h0l.1,0a3.386,3.386,0,0,0,2.469-1.473h0l.806.013-.043.066A4.131,4.131,0,0,1,8.9,17C7.1,17,5.531,15.472,4.665,13.174,2.457,12.3,1,10.763,1,9S2.457,5.7,4.665,4.826C5.531,2.528,7.1,1,8.9,1ZM4.389,5.669l-.031.015c-1.643.791-2.7,1.989-2.7,3.316s1.065,2.54,2.726,3.331A12.344,12.344,0,0,1,3.945,9,12.343,12.343,0,0,1,4.389,5.669Z" fill="currentColor" stroke="currentColor" stroke-width="0.5"/>
    <path data-name="Path 61933" d="M19.643,17.865a1.743,1.743,0,1,0,1.743,1.743A1.743,1.743,0,0,0,19.643,17.865Zm0,.659a1.083,1.083,0,1,1-1.083,1.083A1.083,1.083,0,0,1,19.643,18.524Z" transform="translate(-10.72 -10.698)" fill="currentColor" stroke="currentColor" stroke-width="0.5"/>
  </g>
</svg>
