<svg xmlns="http://www.w3.org/2000/svg" width="24.153" height="24.914" viewBox="0 0 24.153 24.914">
  <g >
  <g id="STATE:_Default" data-name="STATE: Default" transform="translate(3.753 5)">
    <g id="ICON" transform="translate(-6 -4)" mask="url(#ganvas-ui-brush-mask)">
      <path id="S_3DObjectOutline_Xs_N_2x" data-name="S_3DObjectOutline_Xs_N@2x" d="M20.028,6.638,13.876,3.22a2.833,2.833,0,0,0-2.752,0L4.972,6.638A1.889,1.889,0,0,0,4,8.29V17.4a1.889,1.889,0,0,0,.972,1.648l6.152,3.418a2.833,2.833,0,0,0,2.752,0l6.152-3.418A1.889,1.889,0,0,0,21,17.4V8.29A1.889,1.889,0,0,0,20.028,6.638ZM12,4.881a1.039,1.039,0,0,1,1.006,0l5.478,3.041-6.018,3.429L6.488,7.945ZM5.889,17.4V9.766l5.667,3.211v7.573Zm7.556,3.148V12.941l5.667-3.211V17.4Z" transform="translate(-1.753 -3.863)" fill="currentColor" fill-rule="evenodd"/>
      <g id="Path_61157"  data-name="Path 61157" transform="translate(4.247 2)" fill="currentColor">
        <path d="M 5.446624755859375 20.91423416137695 C 4.746044635772705 20.91423416137695 4.018824577331543 20.85553550720215 3.285144567489624 20.73977470397949 C 2.886474609375 20.67867469787598 2.482294797897339 20.5975456237793 2.088164567947388 20.49931526184082 L 2.081654787063599 20.49768447875977 L 2.075164794921875 20.49597549438477 C 1.54557740688324 20.35641098022461 1.135041356086731 19.94180297851562 1.00020444393158 19.41189956665039 C 0.8305220007896423 18.77264213562012 1.158302068710327 18.09930992126465 1.768664717674255 17.83974456787109 L 1.776544690132141 17.83639526367188 L 1.784474730491638 17.83318519592285 C 2.649484634399414 17.48269462585449 2.812224626541138 16.94575500488281 3.070924758911133 15.86109447479248 L 3.073211193084717 15.85151481628418 C 3.317039728164673 14.79018974304199 3.819445133209229 13.79138088226318 4.526264667510986 12.96294498443604 L 4.566494464874268 12.91578483581543 L 4.612234592437744 12.8739652633667 C 5.439464569091797 12.11764526367188 6.512264728546143 11.70111465454102 7.633004665374756 11.70111465454102 C 7.750624656677246 11.70111465454102 7.869734764099121 11.70583534240723 7.987044811248779 11.7151346206665 L 8.029884338378906 11.71853446960449 L 8.072274208068848 11.72558498382568 C 9.148274421691895 11.90477466583252 10.14220428466797 12.45045471191406 10.87097454071045 13.26210498809814 C 11.59975433349609 14.07375526428223 12.03564453125 15.12050533294678 12.09835433959961 16.20951461791992 L 12.10451507568359 16.31657409667969 L 12.08784484863281 16.42250442504883 C 11.88473796844482 17.71274185180664 11.15689373016357 18.88521003723145 10.09082412719727 19.63974952697754 C 8.91064453125 20.48542976379395 7.348132133483887 20.91423416137695 5.446624755859375 20.91423416137695 Z" stroke="none"/>
        <path d="M 11.78108978271484 16.26836967468262 L 11.14653968811035 14.8439302444458 C 10.64614009857178 13.72064018249512 9.739870071411133 12.85528087615967 8.594679832458496 12.40727043151855 L 7.239129543304443 11.8769702911377 L 8.220389366149902 10.80186080932617 C 8.435379981994629 10.56632041931152 8.654850006103516 10.32537078857422 8.877909660339355 10.08048057556152 C 10.66561985015869 8.117800712585449 12.69186019897461 5.893240451812744 14.50426959991455 4.152080535888672 C 16.85807037353516 1.890810489654541 18.3359203338623 0.9260004758834839 19.44581985473633 0.9260004758834839 C 19.91361045837402 0.9260004758834839 20.32649040222168 1.091510415077209 20.63985061645508 1.404630422592163 C 21.27306938171387 2.037390470504761 21.3161506652832 3.025780439376831 20.76786994934082 4.342350482940674 C 20.40209007263184 5.220690250396729 19.77395057678223 6.292990684509277 18.84757041931152 7.62052059173584 C 17.47352981567383 9.589540481567383 15.44250011444092 12.10513019561768 12.81090927124023 15.0974006652832 L 11.78108978271484 16.26836967468262 Z" stroke="none"/>
      </g>

    </g>
  </g>
  </g>
  <mask id="ganvas-ui-brush-mask">
    
    <rect x="-10" y="-10" width="100" height="100" fill="white"/>
    <g transform="translate(4.247 2)">
      <path d="M 7.633031368255615 12.70110893249512 C 6.76806640625 12.70110130310059 5.930227279663086 13.02390480041504 5.287004470825195 13.61199569702148 C 4.680904388427734 14.32239532470703 4.255495071411133 15.16875457763672 4.047004699707031 16.07899475097656 C 3.786994934082031 17.16899490356445 3.547004699707031 18.19799423217773 2.160004615783691 18.75999450683594 C 2.004544258117676 18.82610511779785 1.922344207763672 18.99735450744629 1.967994689941406 19.15999603271484 C 2.011795043945312 19.34011459350586 2.150754928588867 19.48175430297852 2.330004692077637 19.52899551391602 C 2.658994674682617 19.61099624633789 3.029994964599609 19.68899536132812 3.441004753112793 19.75199508666992 C 3.974900245666504 19.83623695373535 4.678073883056641 19.91423606872559 5.446616649627686 19.91423606872559 C 6.785488605499268 19.91423606872559 8.322961807250977 19.67758750915527 9.510994911193848 18.82499504089355 C 10.3643741607666 18.22190475463867 10.93751525878906 17.29926490783691 11.10000419616699 16.26700401306152 C 10.99720478057861 14.4817943572998 9.67186450958252 13.00574493408203 7.908004760742188 12.71199417114258 C 7.816185474395752 12.70471572875977 7.724442958831787 12.70110893249512 7.633031368255615 12.70110893249512 M 7.633034706115723 10.70110511779785 C 7.776874542236328 10.70110511779785 7.922574520111084 10.70687484741211 8.066084861755371 10.71825408935547 L 8.151764869689941 10.72504425048828 L 8.236555099487305 10.73916435241699 C 9.535465240478516 10.95548439025879 10.7353048324585 11.61421394348145 11.61505508422852 12.5940055847168 C 12.49480438232422 13.57380485534668 13.02099514007568 14.83740425109863 13.09669494628906 16.15202522277832 L 13.10902500152588 16.36614418029785 L 13.07567501068115 16.57799530029297 C 12.83101367950439 18.13228607177734 11.95475482940674 19.544677734375 10.67100429534912 20.45423126220703 C 9.317863464355469 21.42296981811523 7.560094833374023 21.91423416137695 5.446614742279053 21.91423416137695 C 4.69527530670166 21.91423416137695 3.916923522949219 21.85162734985352 3.13315486907959 21.72816276550293 C 2.701478958129883 21.66184616088867 2.268536567687988 21.57486152648926 1.846304893493652 21.46962356567383 L 1.833294868469238 21.46637344360352 L 1.820324897766113 21.46296501159668 C 0.9406356811523438 21.23112487792969 0.2582836151123047 20.54335975646973 0.03246021270751953 19.66390991210938 C -0.2615289688110352 18.54748153686523 0.3115444183349609 17.37272644042969 1.377325057983398 16.91950607299805 L 1.393074989318848 16.91280364990234 L 1.408934593200684 16.90637588500977 C 1.774105072021484 16.75841522216797 1.841984748840332 16.70334434509277 2.098204612731934 15.62912559509277 L 2.099782943725586 15.62249755859375 C 2.379935264587402 14.40688133239746 2.955814361572266 13.26293182373047 3.765514373779297 12.31389427185059 L 3.845974922180176 12.21958541870117 L 3.937464714050293 12.13594436645508 C 4.949464797973633 11.21067428588867 6.261914730072021 10.70110511779785 7.633034706115723 10.70110511779785 Z" stroke="black" fill="black"/>
      <path d="M 12.05999946594238 14.4370002746582 C 16.12400054931641 9.815999984741211 21.28499984741211 3.463000535964966 19.9330005645752 2.112000465393066 C 19.80633163452148 1.985426664352417 19.6422119140625 1.926005244255066 19.44582176208496 1.926005244255066 C 17.54601287841797 1.926005244255066 12.60780811309814 7.478262424468994 8.958999633789062 11.47600078582764 C 10.34173965454102 12.01694011688232 11.45580005645752 13.08070087432861 12.05999946594238 14.4370002746582 M 11.50218963623047 18.09972953796387 L 10.23307991027832 15.25085067749023 C 9.840359687805176 14.36928081512451 9.129109382629395 13.69015026092529 8.23036003112793 13.33855056762695 L 5.51924991607666 12.27794075012207 L 7.481789588928223 10.12772083282471 C 7.696559906005859 9.892410278320312 7.915809631347656 9.651710510253906 8.138649940490723 9.407060623168945 C 9.936880111694336 7.432820320129395 11.9750394821167 5.195180416107178 13.81149959564209 3.430920362472534 C 16.43695068359375 0.9086904525756836 18.01666069030762 -0.0739995464682579 19.44581985473633 -0.0739995464682579 C 20.17387008666992 -0.0739995464682579 20.84893035888672 0.1998904496431351 21.34666061401367 0.6972304582595825 C 21.91808891296387 1.268250465393066 22.20182037353516 2.073880434036255 22.14560890197754 2.965750455856323 C 22.11215019226074 3.496560335159302 21.96344947814941 4.072600364685059 21.69101905822754 4.726790428161621 C 21.29735946655273 5.672060489654541 20.6355094909668 6.805800437927246 19.66764068603516 8.192780494689941 C 18.27228927612305 10.19234085083008 16.2180004119873 12.73758029937744 13.56182956695557 15.75780010223389 L 11.50218963623047 18.09972953796387 Z" stroke="black" fill="black"/>
    </g>
  </mask>
</svg>
