<svg xmlns="http://www.w3.org/2000/svg" width="81" height="81" viewBox="0 0 81 81">
  <g id="ICON" transform="translate(-0.031 -0.031)">
    <rect id="Canvas" width="81" height="81" transform="translate(0.031 0.031)" fill="#ff13dc" opacity="0"/>
    <path id="Path_61835" data-name="Path 61835" d="M35.223,2A33.223,33.223,0,1,0,68.446,35.223,33.223,33.223,0,0,0,35.223,2Zm0,60.909A27.686,27.686,0,1,1,62.909,35.223,27.686,27.686,0,0,1,35.223,62.909Z" transform="translate(5.295 5.295)" fill="#a2a2a2"/>
    <path id="Path_61836" data-name="Path 61836" d="M9.785,9.79a3.874,3.874,0,0,1,4.086-4.013A3.878,3.878,0,0,1,17.956,9.79a3.8,3.8,0,0,1-4.086,4.086A3.859,3.859,0,0,1,9.785,9.79Z" transform="translate(26.279 15.511)" fill="#a2a2a2"/>
    <path id="Path_61837" data-name="Path 61837" d="M22.679,27.739H19.943V11.324A1.824,1.824,0,0,0,18.119,9.5H9.912A.912.912,0,0,0,9,10.412v1.824a.912.912,0,0,0,.912.912h2.736V27.739H9.912A.912.912,0,0,0,9,28.651v1.824a.912.912,0,0,0,.912.912H22.679a.912.912,0,0,0,.912-.912V28.651A.912.912,0,0,0,22.679,27.739Z" transform="translate(24.223 25.621)" fill="#a2a2a2"/>
  </g>
</svg>
