<svg id="ICON" xmlns="http://www.w3.org/2000/svg" xmlns:xlink="http://www.w3.org/1999/xlink" width="100" height="98" viewBox="0 0 100 98">
  <defs>
    <clipPath id="clip-path">
      <rect id="SVGID" width="100" height="98" fill="none"/>
    </clipPath>
  </defs>
  <g id="Group_156518" data-name="Group 156518">
    <g id="Group_156517" data-name="Group 156517" clip-path="url(#clip-path)">
      <path id="Path_61841" data-name="Path 61841" d="M82.3,97.509H17.71A17.71,17.71,0,0,1,0,79.8V17.71A17.71,17.71,0,0,1,17.71,0H82.3a17.71,17.71,0,0,1,17.71,17.71V79.8A17.71,17.71,0,0,1,82.3,97.509" fill="#8f8f8f"/>
      <path id="Path_61842" data-name="Path 61842" d="M86.534,99.175H25.141A15.141,15.141,0,0,1,10,84.034V25.141A15.141,15.141,0,0,1,25.141,10H86.534a15.141,15.141,0,0,1,15.141,15.141V84.034A15.141,15.141,0,0,1,86.534,99.175" transform="translate(-5.833 -5.833)" fill="#2b2b2b"/>
    </g>
  </g>
  <g id="Group_156519" data-name="Group 156519" transform="translate(16.7 25.563)">
    <path id="Path_61843" data-name="Path 61843" d="M58.741,88.683c-.416-.07-.486-.208-.486-.625V82.508c0-.347.139-.485.416-.485H72.34c.416,0,.486.139.486.485l.069,22.411c0,.347-.069.486-.485.624a31.89,31.89,0,0,1-11.379,1.943c-14.293,0-20.954-10.129-20.954-22.758,0-14.64,9.089-23.382,22.411-23.382,3.677,0,6.869.416,8.95,1.388.347.139.416.416.416.763V69.6c0,.416-.208.555-.486.347a20.277,20.277,0,0,0-8.881-1.734c-9.644-.07-14.571,6.175-14.571,16.3,0,9.506,4.788,16.167,13.46,16.167a10.6,10.6,0,0,0,3.885-.486V88.891Z" transform="translate(-40.077 -61.346)" fill="#ebebeb"/>
    <path id="Path_61844" data-name="Path 61844" d="M139.2,122.692a.732.732,0,0,1-.694-.416c-2.012-6.73-7.7-26.643-9.714-33.3-.07-.278,0-.485.416-.485h6.939c.347,0,.486.139.624.485,4.58,17.9,5.759,23.243,6.383,26.3h.07c.694-3.122,2.081-8.6,6.73-26.365.069-.347.278-.416.555-.416h6.314c.208,0,.416.139.278.485-2.151,7.285-7.979,27.406-9.853,33.3a.607.607,0,0,1-.624.416Z" transform="translate(-91.808 -77.177)" fill="#ebebeb"/>
  </g>
</svg>
